<svg width="768" height="1405" viewBox="0 0 768 1405" fill="none" xmlns="http://www.w3.org/2000/svg">
<path opacity="0.0946098" d="M188 541.034V500.925C188 498.434 186.64 496.137 184.427 494.9L148.772 474.845C146.56 473.608 143.839 473.608 141.627 474.845L105.972 494.9C103.759 496.137 102.399 498.451 102.399 500.925V541.034C102.399 543.526 103.759 545.823 105.972 547.059L141.627 567.114C143.839 568.351 146.56 568.351 148.772 567.114L184.427 547.059C186.622 545.823 188 543.508 188 541.034Z" fill="url(#paint0_linear_14793_3)"/>
<path opacity="0.0946098" d="M82.283 571.3V590.287C82.283 591.47 82.9333 592.546 83.9631 593.146L100.8 602.64C101.848 603.222 103.131 603.222 104.178 602.64L121.015 593.146C122.063 592.564 122.696 591.47 122.696 590.287V571.3C122.696 570.117 122.045 569.041 121.015 568.441L104.178 558.947C103.131 558.365 101.848 558.365 100.8 558.947L83.9631 568.441C82.9333 569.023 82.283 570.117 82.283 571.3Z" fill="url(#paint1_linear_14793_3)"/>
<path opacity="0.0946098" d="M132.713 459.04V376.555C132.713 371.445 129.899 366.705 125.342 364.15L51.737 322.916C47.1617 320.361 41.5333 320.361 36.9761 322.916L-36.6286 364.15C-41.1858 366.723 -44 371.445 -44 376.555V459.04C-44 464.15 -41.1858 468.891 -36.6286 471.446L36.9761 512.679C41.5333 515.234 47.1617 515.234 51.737 512.679L125.342 471.446C129.899 468.891 132.713 464.15 132.713 459.04Z" fill="url(#paint2_linear_14793_3)"/>
<path opacity="0.0946098" d="M797 1342.62V1302.51C797 1300.02 795.64 1297.73 793.427 1296.49L757.772 1276.44C755.56 1275.2 752.839 1275.2 750.627 1276.44L714.972 1296.49C712.759 1297.73 711.399 1300.04 711.399 1302.51V1342.62C711.399 1345.12 712.759 1347.41 714.972 1348.65L750.627 1368.7C752.839 1369.94 755.56 1369.94 757.772 1368.7L793.427 1348.65C795.622 1347.41 797 1345.1 797 1342.62Z" fill="url(#paint3_linear_14793_3)"/>
<path opacity="0.0946098" d="M691.283 1372.89V1391.88C691.283 1393.06 691.933 1394.14 692.963 1394.74L709.8 1404.23C710.848 1404.81 712.131 1404.81 713.178 1404.23L730.015 1394.74C731.063 1394.15 731.696 1393.06 731.696 1391.88V1372.89C731.696 1371.71 731.045 1370.63 730.015 1370.03L713.178 1360.54C712.131 1359.95 710.848 1359.95 709.8 1360.54L692.963 1370.03C691.933 1370.61 691.283 1371.71 691.283 1372.89Z" fill="url(#paint4_linear_14793_3)"/>
<path opacity="0.0946098" d="M741.713 1260.63V1178.15C741.713 1173.04 738.899 1168.29 734.342 1165.74L660.737 1124.51C656.162 1121.95 650.533 1121.95 645.976 1124.51L572.371 1165.74C567.814 1168.31 565 1173.04 565 1178.15V1260.63C565 1265.74 567.814 1270.48 572.371 1273.04L645.976 1314.27C650.533 1316.82 656.162 1316.82 660.737 1314.27L734.342 1273.04C738.899 1270.48 741.713 1265.74 741.713 1260.63Z" fill="url(#paint5_linear_14793_3)"/>
<path opacity="0.0946098" d="M744.205 11.3095L739.288 1.60985C738.992 1.01478 738.38 0.618062 737.708 0.578391L726.886 0.00315548C726.215 -0.0365159 725.583 0.300691 725.208 0.856091L719.303 9.98052C718.928 10.5558 718.908 11.2698 719.204 11.8649L724.122 21.5646C724.418 22.1596 725.03 22.5564 725.702 22.596L736.523 23.1713C737.195 23.2109 737.827 22.8737 738.202 22.3183L744.107 13.1939C744.482 12.6385 744.521 11.9244 744.205 11.3095Z" fill="url(#paint6_linear_14793_3)"/>
<defs>
<linearGradient id="paint0_linear_14793_3" x1="145.182" y1="473.886" x2="145.182" y2="568.05" gradientUnits="userSpaceOnUse">
<stop stop-color="#D4145A"/>
<stop offset="1" stop-color="#2E3192"/>
</linearGradient>
<linearGradient id="paint1_linear_14793_3" x1="102.495" y1="603.077" x2="102.495" y2="558.504" gradientUnits="userSpaceOnUse">
<stop stop-color="#D4145A"/>
<stop offset="1" stop-color="#2E3192"/>
</linearGradient>
<linearGradient id="paint2_linear_14793_3" x1="44.3529" y1="321.002" x2="44.3529" y2="514.603" gradientUnits="userSpaceOnUse">
<stop stop-color="#D4145A"/>
<stop offset="1" stop-color="#2E3192"/>
</linearGradient>
<linearGradient id="paint3_linear_14793_3" x1="754.182" y1="1275.48" x2="754.182" y2="1369.64" gradientUnits="userSpaceOnUse">
<stop stop-color="#D4145A"/>
<stop offset="1" stop-color="#2E3192"/>
</linearGradient>
<linearGradient id="paint4_linear_14793_3" x1="711.495" y1="1404.67" x2="711.495" y2="1360.09" gradientUnits="userSpaceOnUse">
<stop stop-color="#D4145A"/>
<stop offset="1" stop-color="#2E3192"/>
</linearGradient>
<linearGradient id="paint5_linear_14793_3" x1="653.353" y1="1122.59" x2="653.353" y2="1316.19" gradientUnits="userSpaceOnUse">
<stop stop-color="#D4145A"/>
<stop offset="1" stop-color="#2E3192"/>
</linearGradient>
<linearGradient id="paint6_linear_14793_3" x1="725.942" y1="0.208739" x2="737.564" y2="22.9418" gradientUnits="userSpaceOnUse">
<stop stop-color="#D4145A"/>
<stop offset="1" stop-color="#2E3192"/>
</linearGradient>
</defs>
</svg>
