<svg width="642" height="97" viewBox="0 0 642 97" fill="none" xmlns="http://www.w3.org/2000/svg">
<path opacity="0.0946098" d="M85.6011 69.1603V27.8298C85.6011 25.2626 84.241 22.8956 82.0284 21.6211L46.3733 0.955882C44.1608 -0.318627 41.4404 -0.318627 39.2278 0.955882L3.57277 21.6211C1.3602 22.8956 0 25.2808 0 27.8298V69.1603C0 71.7276 1.3602 74.0945 3.57277 75.369L39.2278 96.0342C41.4404 97.3088 44.1608 97.3088 46.3733 96.0342L82.0284 75.369C84.2228 74.0945 85.6011 71.7093 85.6011 69.1603Z" fill="url(#paint0_linear_132_263)"/>
<path opacity="0.0946098" d="M601 22.1788V41.7446C601 42.9629 601.65 44.0721 602.68 44.6904L619.517 54.4733C620.565 55.0734 621.848 55.0734 622.895 54.4733L639.732 44.6904C640.78 44.0903 641.413 42.9629 641.413 41.7446V22.1788C641.413 20.9604 640.762 19.8512 639.732 19.233L622.895 9.45005C621.848 8.84998 620.565 8.84998 619.517 9.45005L602.68 19.233C601.65 19.833 601 20.9604 601 22.1788Z" fill="url(#paint1_linear_132_263)"/>
<defs>
<linearGradient id="paint0_linear_132_263" x1="42.7835" y1="-0.0328277" x2="42.7835" y2="96.9985" gradientUnits="userSpaceOnUse">
<stop stop-color="#D4145A"/>
<stop offset="1" stop-color="#2E3192"/>
</linearGradient>
<linearGradient id="paint1_linear_132_263" x1="621.212" y1="54.9232" x2="621.212" y2="8.99331" gradientUnits="userSpaceOnUse">
<stop stop-color="#D4145A"/>
<stop offset="1" stop-color="#2E3192"/>
</linearGradient>
</defs>
</svg>
